<svg width="32" height="32" fill="none" xmlns="http://www.w3.org/2000/svg"><path fill-rule="evenodd" clip-rule="evenodd" d="M16.77 12.477a.433.433 0 0 0 .005.444l2.36 3.872c.164.269.551.278.728.017l2.907-4.29c.076-.112.2-.18.335-.194 2.567-.25 4.575-2.443 4.575-5.111 0-2.836-2.268-5.135-5.065-5.135-2.797 0-5.064 2.299-5.064 5.135 0 .885.22 1.718.61 2.446a.456.456 0 0 1-.003.445l-1.387 2.37Zm5.788-3.045a2.16 2.16 0 0 0 2.163-2.159 2.16 2.16 0 0 0-2.163-2.159 2.16 2.16 0 0 0-2.162 2.16 2.16 2.16 0 0 0 2.162 2.158Z" fill="#D1D5DB"/><path fill-rule="evenodd" clip-rule="evenodd" d="M6.257 29.92a.433.433 0 0 1-.365-.666l6.99-10.948a.433.433 0 0 0-.002-.47l-3.551-5.45a.455.455 0 0 0-.345-.2C6.371 11.965 4.32 9.79 4.32 7.141c0-2.796 2.284-5.062 5.101-5.062 2.818 0 5.102 2.266 5.102 5.062a5.01 5.01 0 0 1-.606 2.394.456.456 0 0 0 .01.462l12.211 19.257a.433.433 0 0 1-.365.665h-3.929a.433.433 0 0 1-.343-.17l-.76-.99a.433.433 0 0 1 .073-.6l.982-.789a.433.433 0 0 0 .01-.667l-5.514-4.714a.433.433 0 0 0-.56-.002l-5.62 4.717a.433.433 0 0 0 .007.67l.995.797a.433.433 0 0 1 .085.584l-.674.977a.433.433 0 0 1-.356.187H6.257ZM11.542 7.2c0 1.175-.975 2.128-2.178 2.128-1.203 0-2.178-.953-2.178-2.129 0-1.175.975-2.128 2.178-2.128 1.203 0 2.178.953 2.178 2.128Zm4.378 13.12a1.36 1.36 0 1 0 0-2.72 1.36 1.36 0 0 0 0 2.72Z" fill="#fff"/><path d="M10.97 27.222a.108.108 0 0 0 .012.164l.73.538a.108.108 0 0 0 .152-.024l3.01-4.21c.077-.108-.069-.234-.163-.141l-3.74 3.673ZM20.136 27.897c.035.05.104.062.153.026l.73-.538a.108.108 0 0 0 .013-.163l-3.65-3.673c-.092-.094-.24.03-.165.138l2.92 4.21Z" fill="#fff"/></svg>